<svg xmlns="http://www.w3.org/2000/svg" style="display: none;">
  <!-- Android Icon -->
  <symbol id="android2" viewBox="0 0 15.000232 16.00062" class="icon">
    <path d="M10.213 1.471l.691-1.26q.069-.124-.048-.192-.128-.057-.195.058l-.7 1.27A4.8 4.8 0 0 0 8.005.941q-1.032 0-1.956.404l-.7-1.27Q5.281-.037 5.154.02q-.117.069-.049.193l.691 1.259a4.25 4.25 0 0 0-1.673 1.476A3.7 3.7 0 0 0 3.5 5.02h9q0-1.125-.623-2.072a4.27 4.27 0 0 0-1.664-1.476ZM6.22 3.303a.37.37 0 0 1-.267.11.35.35 0 0 1-.263-.11.37.37 0 0 1-.107-.264.37.37 0 0 1 .107-.265.35.35 0 0 1 .263-.11q.155 0 .267.11a.36.36 0 0 1 .112.265.36.36 0 0 1-.112.264m4.101 0a.35.35 0 0 1-.262.11.37.37 0 0 1-.268-.11.36.36 0 0 1-.112-.264q0-.154.112-.265a.37.37 0 0 1 .268-.11q.155 0 .262.11a.37.37 0 0 1 .107.265q0 .153-.107.264M3.5 11.77q0 .441.311.75.311.306.76.307h.758l.01 2.182q0 .414.292.703a.96.96 0 0 0 .7.288.97.97 0 0 0 .71-.288.95.95 0 0 0 .292-.703v-2.182h1.343v2.182q0 .414.292.703a.97.97 0 0 0 .71.288.97.97 0 0 0 .71-.288.95.95 0 0 0 .292-.703v-2.182h.76q.436 0 .749-.308.31-.307.311-.75V5.365h-9zm10.495-6.587a.98.98 0 0 0-.702.278.9.9 0 0 0-.293.685v4.063q0 .406.293.69a.97.97 0 0 0 .702.284q.42 0 .712-.284a.92.92 0 0 0 .293-.69V6.146a.9.9 0 0 0-.293-.685 1 1 0 0 0-.712-.278m-12.702.283a1 1 0 0 1 .712-.283q.41 0 .702.283a.9.9 0 0 1 .293.68v4.063a.93.93 0 0 1-.288.69.97.97 0 0 1-.707.284 1 1 0 0 1-.712-.284.92.92 0 0 1-.293-.69V6.146q0-.396.293-.68" />
  </symbol>

  <!-- Amazon Icon -->
  <symbol symbolid="amazon" viewBox="0 0 15.526907 16" class="icon">
    <path d="M10.813 11.968c.157.083.36.074.5-.05l.005.005a90 90 0 0 1 1.623-1.405c.173-.143.143-.372.006-.563l-.125-.17c-.345-.465-.673-.906-.673-1.791v-3.3l.001-.335c.008-1.265.014-2.421-.933-3.305C10.404.274 9.06 0 8.03 0 6.017 0 3.77.75 3.296 3.24c-.047.264.143.404.316.443l2.054.22c.19-.009.33-.196.366-.387.176-.857.896-1.271 1.703-1.271.435 0 .929.16 1.188.55.264.39.26.91.257 1.376v.432q-.3.033-.621.065c-1.113.114-2.397.246-3.36.67C3.873 5.91 2.94 7.08 2.94 8.798c0 2.2 1.387 3.298 3.168 3.298 1.506 0 2.328-.354 3.489-1.54l.167.246c.274.405.456.675 1.047 1.166ZM6.03 8.431C6.03 6.627 7.647 6.3 9.177 6.3v.57c.001.776.002 1.434-.396 2.133-.336.595-.87.961-1.465.961-.812 0-1.286-.619-1.286-1.533M.435 12.174c2.629 1.603 6.698 4.084 13.183.997.28-.116.475.078.199.431C13.538 13.96 11.312 16 7.57 16 3.832 16 .968 13.446.094 12.386c-.24-.275.036-.4.199-.299z" />
  </symbol>

  <!-- Apple Icon -->
  <symbol id="apple" viewBox="0 0 15.526907 16" class="icon">
    <path d="M11.182.008C11.148-.03 9.923.023 8.857 1.18c-1.066 1.156-.902 2.482-.878 2.516s1.52.087 2.475-1.258.762-2.391.728-2.43m3.314 11.733c-.048-.096-2.325-1.234-2.113-3.422s1.675-2.789 1.698-2.854-.597-.79-1.254-1.157a3.7 3.7 0 0 0-1.563-.434c-.108-.003-.483-.095-1.254.116-.508.139-1.653.589-1.968.607-.316.018-1.256-.522-2.267-.665-.647-.125-1.333.131-1.824.328-.49.196-1.422.754-2.074 2.237-.652 1.482-.311 3.83-.067 4.56s.625 1.924 1.273 2.796c.576.984 1.34 1.667 1.659 1.899s1.219.386 1.843.067c.502-.308 1.408-.485 1.766-.472.357.013 1.061.154 1.782.539.571.197 1.111.115 1.652-.105.541-.221 1.324-1.059 2.238-2.758q.52-1.185.473-1.282" />
  </symbol>

  <!-- Android Icon (Additional) -->
  <symbol id="android" viewBox="0 0 16 16" class="icon">
    <path d="M2.76 3.061a.5.5 0 0 1 .679.2l1.283 2.352A8.9 8.9 0 0 1 8 5a8.9 8.9 0 0 1 3.278.613l1.283-2.352a.5.5 0 1 1 .878.478l-1.252 2.295C14.475 7.266 16 9.477 16 12H0c0-2.523 1.525-4.734 3.813-5.966L2.56 3.74a.5.5 0 0 1 .2-.678ZM5 10a1 1 0 1 0 0-2 1 1 0 0 0 0 2m6 0a1 1 0 1 0 0-2 1 1 0 0 0 0 2" />
  </symbol>

  <symbol  id="bagfill" viewBox="0 0 16 16" class="icon">
  <path  d="M10.5 3.5a2.5 2.5 0 0 0-5 0V4h5zm1 0V4H15v10a2 2 0 0 1-2 2H3a2 2 0 0 1-2-2V4h3.5v-.5a3.5 3.5 0 1 1 7 0M8.5 8a.5.5 0 0 0-1 0v1.5H6a.5.5 0 0 0 0 1h1.5V12a.5.5 0 0 0 1 0v-1.5H10a.5.5 0 0 0 0-1H8.5z"/>
</symbol>

<symbol  id="bank" viewBox="0 0 16 16" class="icon">
  <path d="m8 0 6.61 3h.89a.5.5 0 0 1 .5.5v2a.5.5 0 0 1-.5.5H15v7a.5.5 0 0 1 .485.38l.5 2a.498.498 0 0 1-.485.62H.5a.498.498 0 0 1-.485-.62l.5-2A.5.5 0 0 1 1 13V6H.5a.5.5 0 0 1-.5-.5v-2A.5.5 0 0 1 .5 3h.89zM3.777 3h8.447L8 1zM2 6v7h1V6zm2 0v7h2.5V6zm3.5 0v7h1V6zm2 0v7H12V6zM13 6v7h1V6zm2-1V4H1v1zm-.39 9H1.39l-.25 1h13.72z"/>
</symbol>

<symbol  id="chrome" viewBox="0 0 16 16" class='icon'>
  <path  d="M16 8a8 8 0 0 1-7.022 7.94l1.902-7.098a3 3 0 0 0 .05-1.492A3 3 0 0 0 10.237 6h5.511A8 8 0 0 1 16 8M0 8a8 8 0 0 0 7.927 8l1.426-5.321a3 3 0 0 1-.723.255 3 3 0 0 1-1.743-.147 3 3 0 0 1-1.043-.7L.633 4.876A8 8 0 0 0 0 8m5.004-.167L1.108 3.936A8.003 8.003 0 0 1 15.418 5H8.066a3 3 0 0 0-1.252.243 2.99 2.99 0 0 0-1.81 2.59M8 10a2 2 0 1 0 0-4 2 2 0 0 0 0 4"/>
</symbol>

<symbol  id="cloud" viewBox="0 0 16 16" class='icon'>
  <path d="M8 2a5.53 5.53 0 0 0-3.594 1.342c-.766.66-1.321 1.52-1.464 2.383C1.266 6.095 0 7.555 0 9.318 0 11.366 1.708 13 3.781 13h8.906C14.502 13 16 11.57 16 9.773c0-1.636-1.242-2.969-2.834-3.194C12.923 3.999 10.69 2 8 2m2.354 6.854-2 2a.5.5 0 0 1-.708 0l-2-2a.5.5 0 1 1 .708-.708L7.5 9.293V5.5a.5.5 0 0 1 1 0v3.793l1.146-1.147a.5.5 0 0 1 .708.708"/>
</symbol>

<symbol  id="cupfill" viewBox="0 0 16 16" class='icon' fill="currentColor">
  <path  d="M.11 3.187A.5.5 0 0 1 .5 3h13a.5.5 0 0 1 .488.608l-.22.991a3.001 3.001 0 0 1-1.3 5.854l-.132.59A2.5 2.5 0 0 1 9.896 13H4.104a2.5 2.5 0 0 1-2.44-1.958L.012 3.608a.5.5 0 0 1 .098-.42Zm12.574 6.288a2 2 0 0 0 .866-3.899z"/>
</symbol>

<symbol id="door-closed" viewBox="0 0 16 16" class='icon'>
  <path d="M12 1a1 1 0 0 1 1 1v13h1.5a.5.5 0 0 1 0 1h-13a.5.5 0 0 1 0-1H3V2a1 1 0 0 1 1-1zm-2 9a1 1 0 1 0 0-2 1 1 0 0 0 0 2"/>
</symbol>

<symbol id="bi-emoji-sunglasses-fill" viewBox="0 0 16 16" class='icon'>
  <path d="M8 16A8 8 0 1 0 8 0a8 8 0 0 0 0 16M2.31 5.243A1 1 0 0 1 3.28 4H6a1 1 0 0 1 1 1v.116A4.2 4.2 0 0 1 8 5c.35 0 .69.04 1 .116V5a1 1 0 0 1 1-1h2.72a1 1 0 0 1 .97 1.243l-.311 1.242A2 2 0 0 1 11.439 8H11a2 2 0 0 1-1.994-1.839A3 3 0 0 0 8 6c-.393 0-.74.064-1.006.161A2 2 0 0 1 5 8h-.438a2 2 0 0 1-1.94-1.515zM4.969 9.75A3.5 3.5 0 0 0 8 11.5a3.5 3.5 0 0 0 3.032-1.75.5.5 0 1 1 .866.5A4.5 4.5 0 0 1 8 12.5a4.5 4.5 0 0 1-3.898-2.25.5.5 0 0 1 .866-.5z"/>
</symbol>

<symbol  id="airplane" viewBox="0 0 16 16" class='icon'>
  <path d="M6.428 1.151C6.708.591 7.213 0 8 0s1.292.592 1.572 1.151C9.861 1.73 10 2.431 10 3v3.691l5.17 2.585a1.5 1.5 0 0 1 .83 1.342V12a.5.5 0 0 1-.582.493l-5.507-.918-.375 2.253 1.318 1.318A.5.5 0 0 1 10.5 16h-5a.5.5 0 0 1-.354-.854l1.319-1.318-.376-2.253-5.507.918A.5.5 0 0 1 0 12v-1.382a1.5 1.5 0 0 1 .83-1.342L6 6.691V3c0-.568.14-1.271.428-1.849"/>
</symbol>
</svg>
